<?xml version="1.0" encoding="utf-8"?>
<!-- Generator: Adobe Illustrator 19.0.0, SVG Export Plug-In . SVG Version: 6.00 Build 0)  -->
<svg version="1.1" id="Layer_1" xmlns="http://www.w3.org/2000/svg" xmlns:xlink="http://www.w3.org/1999/xlink" x="0px" y="0px"
	 viewBox="90 91 792 612" style="enable-background:new 90 91 792 612;" xml:space="preserve">
<style type="text/css">
	.st0{fill:#FFFFFF;}
</style>
<path class="st0" d="M197.7,240.9c-6.6,0-12,5.4-12,12v192c0,6.6,5.4,12,12,12s12-5.4,12-12v-192
	C209.7,246.3,204.3,240.9,197.7,240.9z M341.7,240.9c-6.6,0-12,5.4-12,12v192c0,6.6,5.4,12,12,12c6.6,0,12-5.4,12-12v-192
	C353.7,246.3,348.3,240.9,341.7,240.9z M629.7,336.9c6.6,0,12-5.4,12-12v-72c0-6.6-5.4-12-12-12s-12,5.4-12,12v72
	C617.7,331.6,623.1,336.9,629.7,336.9z M773.7,240.9c-6.6,0-12,5.4-12,12v72c0,6.6,5.4,12,12,12s12-5.4,12-12v-72
	C785.7,246.3,780.3,240.9,773.7,240.9z M773.7,168.9c-30.5,0-57.3,16.4-72,40.8c-14.7-24.4-41.5-40.8-72-40.8s-57.3,16.4-72,40.8
	c-14.7-24.4-41.5-40.8-72-40.8s-57.3,16.4-72,40.8c-14.7-24.4-41.5-40.8-72-40.8s-57.3,16.4-72,40.8c-14.7-24.4-41.5-40.8-72-40.8
	c-46.3,0-84,37.7-84,84v192c0,46.3,37.7,84,84,84c23.5,0,44.7-9.7,60-25.3v73.3c0,26.5,21.5,48,48,48s48-21.5,48-48V528
	c25.5-3.7,47.3-18.8,60-39.9c14.7,24.4,41.5,40.8,72,40.8s57.3-16.4,72-40.8c14.7,24.4,41.5,40.8,72,40.8s57.3-16.4,72-40.8
	c14.7,24.4,41.5,40.8,72,40.8c46.3,0,84-37.7,84-84v-192C857.7,206.6,820,168.9,773.7,168.9z M197.7,504.9c-33.1,0-60-26.9-60-60
	v-192c0-33.1,26.9-60,60-60s60,26.9,60,60v192C257.7,478,230.8,504.9,197.7,504.9z M341.7,504.9L341.7,504.9c-6.6,0-12,5.4-12,12v60
	c0,14-12.1,25.3-26.4,23.9c-12.5-1.2-21.6-12.4-21.6-25V444.9l0,0V254.7c0-31.2,23.1-58.6,54.2-61.5c35.7-3.4,65.8,24.7,65.8,59.7
	v192C401.7,478.1,374.8,504.9,341.7,504.9z M479.9,504.7c-31.1-2.9-54.2-30.3-54.2-61.5v-34.3c0-6.6,5.4-12,12-12h24
	c6.6,0,12,5.4,12,12v35.3c0,6.3,4.5,12,10.8,12.6c7.2,0.7,13.2-4.9,13.2-11.9v-36c0-19.9-16.1-36-36-36l0,0c-19.9,0-36-16.1-36-36
	v-82.2c0-31.2,23.1-58.6,54.2-61.5c35.7-3.4,65.8,24.7,65.8,59.7v35.9c0,6.6-5.4,12-12,12h-24c-6.6,0-12-5.4-12-12v-35.3
	c0-6.3-4.5-12-10.8-12.6c-7.2-0.7-13.2,4.9-13.2,11.9v36c0,19.9,16.1,36,36,36l0,0c19.9,0,36,16.1,36,36v84.1
	C545.7,479.9,515.6,508,479.9,504.7z M623.9,504.7c-31.1-2.9-54.2-30.3-54.2-61.5V254.7c0-31.2,23.1-58.6,54.2-61.5
	c35.7-3.4,65.8,24.7,65.8,59.7v120c0,6.6-5.4,12-12,12h-24c-19.9,0-36,16.1-36,36v23.3c0,6.3,4.5,12,10.8,12.6
	c7.2,0.7,13.2-4.9,13.2-11.9v-24c0-6.6,5.4-12,12-12h24c6.6,0,12,5.4,12,12v24C689.7,479.9,659.6,508,623.9,504.7z M833.7,372.9
	c0,6.6-5.4,12-12,12h-24c-19.9,0-36,16.1-36,36v23.3c0,6.3,4.5,12,10.8,12.6c7.2,0.7,13.2-4.9,13.2-11.9v-24c0-6.6,5.4-12,12-12h24
	c6.6,0,12,5.4,12,12v24c0,35-30.1,63.1-65.8,59.7c-31.1-2.9-54.2-30.3-54.2-61.5V254.7c0-31.2,23.1-58.6,54.2-61.5
	c35.7-3.4,65.8,24.7,65.8,59.7V372.9z"/>
</svg>
