<?xml version="1.0" encoding="utf-8"?>
<!-- Generator: Adobe Illustrator 19.1.0, SVG Export Plug-In . SVG Version: 6.00 Build 0)  -->
<svg version="1.1" id="Layer_1" xmlns="http://www.w3.org/2000/svg" xmlns:xlink="http://www.w3.org/1999/xlink" x="0px" y="0px"
	 viewBox="71 -35.2 165.1 95.2" style="enable-background:new 71 -35.2 165.1 95.2;" xml:space="preserve">
<style type="text/css">
	.st0{fill:#FFFFFF;}
	.st1{fill:#E53A35;}
	.st2{fill:#F05323;}
	.st3{fill:#ED6D23;}
	.st4{fill:#F78C1F;}
	.st5{fill:#FCB316;}
	.st6{fill:#EEEEEE;}
</style>
<g>
	<path class="st0" d="M60.6,314.2c-7,0-13,4-16,9.8c-3-5.8-9-9.8-16-9.8s-13,4-16,9.8c-3-5.8-9-9.8-16-9.8s-13,4-16,9.8
		c-3-5.8-9-9.8-16-9.8s-13,4-16,9.8c-3-5.8-9-9.8-16-9.8c-9.9,0-18,8.1-18,18v36c0,9.9,8.1,18,18,18c5.7,0,10.7-2.6,14-6.7v18.7
		c0,5.5,4.5,10,10,10s10-4.5,10-10v-12.1c6.1-0.7,11.3-4.4,14-9.7c3,5.8,9,9.8,16,9.8s13-4,16-9.8c3,5.8,9,9.8,16,9.8s13-4,16-9.8
		c3,5.8,9,9.8,16,9.8c9.9,0,18-8.1,18-18v-36C78.6,322.3,70.5,314.2,60.6,314.2z"/>
	<g>
		<path class="st1" d="M-53.4,332.2c0-7.7-6.3-14-14-14l0,0c-7.7,0-14,6.3-14,14v1h28C-53.4,333.2-53.4,332.2-53.4,332.2z"/>
		<path class="st1" d="M-49.4,332.2v1h28v-1c0-7.7-6.3-14-14-14l0,0C-43.1,318.2-49.4,324.5-49.4,332.2z"/>
		<path class="st1" d="M10.6,332.2c0-8-6.7-14.4-14.7-14c-7.5,0.4-13.3,6.9-13.3,14.4v0.6h12v-1c0-1.2,1.1-2.2,2.3-2
			c1,0.2,1.7,1.1,1.7,2.1v0.9h12V332.2z"/>
		<path class="st1" d="M27.9,318.2c-7.5,0.4-13.3,6.9-13.3,14.4v0.6h28v-1C42.6,324.2,35.9,317.8,27.9,318.2z"/>
		<path class="st1" d="M59.9,318.2c-7.5,0.4-13.3,6.9-13.3,14.4v0.6h28v-1C74.6,324.2,67.9,317.8,59.9,318.2z"/>
	</g>
	<g>
		<rect x="-81.4" y="333.2" class="st2" width="28" height="17"/>
		<rect x="-49.4" y="333.2" class="st2" width="28" height="17"/>
		<path class="st2" d="M1.6,344.2h-1c-3.3,0-6-2.7-6-6v-5h-12v14c0,1.1,0.2,2.1,0.5,3h27C8.8,346.7,5.5,344.2,1.6,344.2z"/>
		<path class="st2" d="M0.6,340.2h8c1.1,0,2-0.9,2-2v-5h-12v5C-1.4,339.3-0.5,340.2,0.6,340.2z"/>
		<rect x="14.6" y="333.2" class="st2" width="28" height="17"/>
		<rect x="46.6" y="333.2" class="st2" width="28" height="17"/>
	</g>
	<g>
		<rect x="-81.4" y="350.2" class="st3" width="28" height="18"/>
		<rect x="-49.4" y="350.2" class="st3" width="28" height="18"/>
		<path class="st3" d="M-5.4,368.1v-5.9c0-1.1-0.9-2-2-2h-8c-1.1,0-2,0.9-2,2v5.6c0,0.1,0,0.3,0,0.4h12V368.1z"/>
		<path class="st3" d="M10.6,368.2v-15c0-1.1-0.2-2.1-0.5-3h-27c1.2,3.5,4.6,6,8.5,6h1c3.3,0,6,2.7,6,6v6H10.6z"/>
		<path class="st3" d="M40.6,361.5h-8c-1.1,0-2,0.9-2,2v4.7h12v-4.7C42.6,362.4,41.7,361.5,40.6,361.5z"/>
		<path class="st3" d="M14.6,350.2v17.6c0,0.1,0,0.3,0,0.4h12v-0.1v-3.9c0-3.3,2.7-6,6-6h8c1.1,0,2-0.9,2-2v-6H14.6z"/>
		<path class="st3" d="M46.6,367.8c0,0.1,0,0.3,0,0.4h12v-0.1v-3.9c0-3.3,2.7-6,6-6h8c1.1,0,2-0.9,2-2v-6h-28V367.8z"/>
		<path class="st3" d="M72.6,361.5h-8c-1.1,0-2,0.9-2,2v4.7h12v-4.7C74.6,362.4,73.7,361.5,72.6,361.5z"/>
	</g>
	<g>
		<path class="st4" d="M-67.4,382.2c7.7,0,14-6.3,14-14l0,0h-28l0,0C-81.4,375.9-75.1,382.2-67.4,382.2z"/>
		<path class="st4" d="M-37.4,385.2V382c0.7,0.1,1.3,0.2,2,0.2c7.7,0,14-6.3,14-14l0,0h-28l0,0v17H-37.4z"/>
		<path class="st4" d="M-4.1,382.2c8,0.4,14.7-6,14.7-14l0,0h-12l0,0c0,1.2-1.1,2.2-2.3,2c-0.9-0.2-1.6-1-1.7-2h-12
			C-17.2,375.6-11.5,381.8-4.1,382.2z"/>
		<path class="st4" d="M30.6,368.2L30.6,368.2c0,1.2-1.1,2.2-2.3,2c-0.9-0.2-1.6-1-1.7-2h-12c0.2,7.4,5.9,13.6,13.3,14
			c8,0.4,14.7-6,14.7-14l0,0H30.6z"/>
		<path class="st4" d="M62.6,368.2c0,1.2-1.1,2.2-2.3,2c-0.9-0.2-1.6-1-1.7-2h-12c0.2,7.4,5.9,13.6,13.3,14c8,0.4,14.7-6,14.7-14
			l0,0H62.6L62.6,368.2z"/>
	</g>
	<path class="st5" d="M-37.4,398.2v-13h-12v13c0,3.3,2.7,6,6,6S-37.4,401.5-37.4,398.2z"/>
	<path class="st6" d="M28.6,346.2c1.1,0,2-0.9,2-2v-12c0-1.1-0.9-2-2-2s-2,0.9-2,2v12C26.6,345.3,27.5,346.2,28.6,346.2z"/>
	<path class="st6" d="M60.6,330.2c-1.1,0-2,0.9-2,2v12c0,1.1,0.9,2,2,2c1.1,0,2-0.9,2-2v-12C62.6,331.1,61.7,330.2,60.6,330.2z"/>
	<path class="st6" d="M-35.4,330.2c-1.1,0-2,0.9-2,2v36c0,1.1,0.9,2,2,2s2-0.9,2-2v-36C-33.4,331.1-34.3,330.2-35.4,330.2z"/>
	<path class="st6" d="M-67.4,330.2c-1.1,0-2,0.9-2,2v36c0,1.1,0.9,2,2,2s2-0.9,2-2v-36C-65.4,331.1-66.3,330.2-67.4,330.2z"/>
</g>
</svg>
