<?xml version="1.0" encoding="utf-8"?>
<!-- Generator: Adobe Illustrator 19.1.0, SVG Export Plug-In . SVG Version: 6.00 Build 0)  -->
<svg version="1.1" id="Layer_1" xmlns="http://www.w3.org/2000/svg" xmlns:xlink="http://www.w3.org/1999/xlink" x="0px" y="0px"
	 viewBox="71 -35.2 165.1 95.2" style="enable-background:new 71 -35.2 165.1 95.2;" xml:space="preserve">
<style type="text/css">
	.st0{fill:#757575;}
</style>
<path class="st0" d="M94.8-19.4c-1.3,0-2.4,1.1-2.4,2.4v39.2c0,1.3,1.1,2.4,2.4,2.4c1.3,0,2.4-1.1,2.4-2.4V-17
	C97.3-18.3,96.2-19.4,94.8-19.4z"/>
<path class="st0" d="M124.2-19.4c-1.3,0-2.4,1.1-2.4,2.4v39.2c0,1.3,1.1,2.4,2.4,2.4s2.4-1.1,2.4-2.4V-17
	C126.6-18.3,125.5-19.4,124.2-19.4z"/>
<path class="st0" d="M182.9,0.2c1.3,0,2.4-1.1,2.4-2.4V-17c0-1.3-1.1-2.4-2.4-2.4c-1.3,0-2.4,1.1-2.4,2.4v14.7
	C180.5-0.9,181.6,0.2,182.9,0.2z"/>
<path class="st0" d="M212.3-19.4c-1.3,0-2.4,1.1-2.4,2.4v14.7c0,1.3,1.1,2.4,2.4,2.4c1.3,0,2.4-1.1,2.4-2.4V-17
	C214.7-18.3,213.6-19.4,212.3-19.4z"/>
<path class="st0" d="M212.3-34.1c-6.2,0-11.7,3.3-14.7,8.3c-3-5-8.5-8.3-14.7-8.3c-6.2,0-11.7,3.3-14.7,8.3c-3-5-8.5-8.3-14.7-8.3
	s-11.7,3.3-14.7,8.3c-3-5-8.5-8.3-14.7-8.3c-6.2,0-11.7,3.3-14.7,8.3c-3-5-8.5-8.3-14.7-8.3c-9.4,0-17.1,7.7-17.1,17.1v39.2
	c0,9.4,7.7,17.1,17.1,17.1c4.8,0,9.1-2,12.2-5.2v14.9c0,5.4,4.4,9.8,9.8,9.8c5.4,0,9.8-4.4,9.8-9.8v-10c5.2-0.8,9.6-3.8,12.2-8.1
	c3,5,8.5,8.3,14.7,8.3s11.7-3.3,14.7-8.3c3,5,8.5,8.3,14.7,8.3c6.2,0,11.7-3.3,14.7-8.3c3,5,8.5,8.3,14.7,8.3
	c9.4,0,17.1-7.7,17.1-17.1V-17C229.4-26.4,221.7-34.1,212.3-34.1z M94.8,34.4c-6.8,0-12.2-5.5-12.2-12.2V-17
	c0-6.8,5.5-12.2,12.2-12.2s12.2,5.5,12.2,12.2v39.2C107.1,28.9,101.6,34.4,94.8,34.4z M124.2,34.4L124.2,34.4
	c-1.3,0-2.4,1.1-2.4,2.4v12.2c0,2.9-2.5,5.2-5.4,4.9c-2.5-0.2-4.4-2.5-4.4-5.1V22.2l0,0v-38.8c0-6.4,4.7-12,11.1-12.5
	c7.3-0.7,13.4,5,13.4,12.2v39.2C136.4,29,130.9,34.4,124.2,34.4z M152.4,34.4c-6.3-0.6-11.1-6.2-11.1-12.5v-7c0-1.3,1.1-2.4,2.4-2.4
	h4.9c1.3,0,2.4,1.1,2.4,2.4V22c0,1.3,0.9,2.4,2.2,2.6c1.5,0.1,2.7-1,2.7-2.4v-7.3c0-4.1-3.3-7.3-7.3-7.3l0,0c-4.1,0-7.3-3.3-7.3-7.3
	v-16.8c0-6.4,4.7-12,11.1-12.5c7.3-0.7,13.4,5,13.4,12.2v7.3c0,1.3-1.1,2.4-2.4,2.4h-4.9c-1.3,0-2.4-1.1-2.4-2.4v-7.2
	c0-1.3-0.9-2.4-2.2-2.6c-1.5-0.1-2.7,1-2.7,2.4v7.3c0,4.1,3.3,7.3,7.3,7.3l0,0c4.1,0,7.3,3.3,7.3,7.3v17.2
	C165.8,29.3,159.6,35.1,152.4,34.4z M181.7,34.4c-6.3-0.6-11.1-6.2-11.1-12.5v-38.4c0-6.4,4.7-12,11.1-12.5
	c7.3-0.7,13.4,5,13.4,12.2V7.5c0,1.3-1.1,2.4-2.4,2.4h-4.9c-4.1,0-7.3,3.3-7.3,7.3V22c0,1.3,0.9,2.4,2.2,2.6c1.5,0.1,2.7-1,2.7-2.4
	v-4.9c0-1.3,1.1-2.4,2.4-2.4h4.9c1.3,0,2.4,1.1,2.4,2.4v4.9C195.2,29.3,189,35.1,181.7,34.4z M224.5,7.5c0,1.3-1.1,2.4-2.4,2.4h-4.9
	c-4.1,0-7.3,3.3-7.3,7.3V22c0,1.3,0.9,2.4,2.2,2.6c1.5,0.1,2.7-1,2.7-2.4v-4.9c0-1.3,1.1-2.4,2.4-2.4h4.9c1.3,0,2.4,1.1,2.4,2.4v4.9
	c0,7.1-6.1,12.9-13.4,12.2c-6.3-0.6-11.1-6.2-11.1-12.5v-38.4c0-6.4,4.7-12,11.1-12.5c7.3-0.7,13.4,5,13.4,12.2V7.5z"/>
</svg>
