<?xml version="1.0" encoding="utf-8"?>
<!-- Generator: Adobe Illustrator 18.1.1, SVG Export Plug-In . SVG Version: 6.00 Build 0)  -->
<!DOCTYPE svg PUBLIC "-//W3C//DTD SVG 1.1//EN" "http://www.w3.org/Graphics/SVG/1.1/DTD/svg11.dtd">
<svg version="1.1" id="Layer_1" xmlns="http://www.w3.org/2000/svg" xmlns:xlink="http://www.w3.org/1999/xlink" x="0px" y="0px"
	 viewBox="0 0 792 612" enable-background="new 0 0 792 612" xml:space="preserve">
<path fill="#757575" d="M107.7,149.9c-6.6,0-12,5.4-12,12v192c0,6.6,5.4,12,12,12s12-5.4,12-12v-192
	C119.7,155.3,114.3,149.9,107.7,149.9z"/>
<path fill="#757575" d="M251.7,149.9c-6.6,0-12,5.4-12,12v192c0,6.6,5.4,12,12,12s12-5.4,12-12v-192
	C263.7,155.3,258.3,149.9,251.7,149.9z"/>
<path fill="#757575" d="M539.7,245.9c6.6,0,12-5.4,12-12v-72c0-6.6-5.4-12-12-12s-12,5.4-12,12v72
	C527.7,240.6,533.1,245.9,539.7,245.9z"/>
<path fill="#757575" d="M683.7,149.9c-6.6,0-12,5.4-12,12v72c0,6.6,5.4,12,12,12s12-5.4,12-12v-72
	C695.7,155.3,690.3,149.9,683.7,149.9z"/>
<path fill="#757575" d="M683.7,77.9c-30.5,0-57.3,16.4-72,40.8c-14.7-24.4-41.5-40.8-72-40.8c-30.5,0-57.3,16.4-72,40.8
	c-14.7-24.4-41.5-40.8-72-40.8c-30.5,0-57.3,16.4-72,40.8c-14.7-24.4-41.5-40.8-72-40.8c-30.5,0-57.3,16.4-72,40.8
	c-14.7-24.4-41.5-40.8-72-40.8c-46.3,0-84,37.7-84,84v192c0,46.3,37.7,84,84,84c23.5,0,44.7-9.7,60-25.3v73.3c0,26.5,21.5,48,48,48
	c26.5,0,48-21.5,48-48v-48.9c25.5-3.7,47.3-18.8,60-39.9c14.7,24.4,41.5,40.8,72,40.8c30.5,0,57.3-16.4,72-40.8
	c14.7,24.4,41.5,40.8,72,40.8c30.5,0,57.3-16.4,72-40.8c14.7,24.4,41.5,40.8,72,40.8c46.3,0,84-37.7,84-84v-192
	C767.7,115.6,730,77.9,683.7,77.9z M107.7,413.9c-33.1,0-60-26.9-60-60v-192c0-33.1,26.9-60,60-60c33.1,0,60,26.9,60,60v192
	C167.7,387,140.8,413.9,107.7,413.9z M251.7,413.9L251.7,413.9c-6.6,0-12,5.4-12,12v60c0,14-12.1,25.3-26.4,23.9
	c-12.5-1.2-21.6-12.4-21.6-25V353.9c0,0,0,0,0,0V163.7c0-31.2,23.1-58.6,54.2-61.5c35.7-3.4,65.8,24.7,65.8,59.7v192
	C311.7,387.1,284.8,413.9,251.7,413.9z M389.9,413.7c-31.1-2.9-54.2-30.3-54.2-61.5v-34.3c0-6.6,5.4-12,12-12h24c6.6,0,12,5.4,12,12
	l0,35.3c0,6.3,4.5,12,10.8,12.6c7.2,0.7,13.2-4.9,13.2-11.9v-36c0-19.9-16.1-36-36-36h0c-19.9,0-36-16.1-36-36v-82.2
	c0-31.2,23.1-58.6,54.2-61.5c35.7-3.4,65.8,24.7,65.8,59.7v35.9c0,6.6-5.4,12-12,12h-24c-6.6,0-12-5.4-12-12l0-35.3
	c0-6.3-4.5-12-10.8-12.6c-7.2-0.7-13.2,4.9-13.2,11.9v36c0,19.9,16.1,36,36,36h0c19.9,0,36,16.1,36,36v84.1
	C455.7,388.9,425.6,417,389.9,413.7z M533.9,413.7c-31.1-2.9-54.2-30.3-54.2-61.5V163.7c0-31.2,23.1-58.6,54.2-61.5
	c35.7-3.4,65.8,24.7,65.8,59.7v120c0,6.6-5.4,12-12,12h-24c-19.9,0-36,16.1-36,36l0,23.3c0,6.3,4.5,12,10.8,12.6
	c7.2,0.7,13.2-4.9,13.2-11.9v-24c0-6.6,5.4-12,12-12h24c6.6,0,12,5.4,12,12v24C599.7,388.9,569.6,417,533.9,413.7z M743.7,281.9
	c0,6.6-5.4,12-12,12h-24c-19.9,0-36,16.1-36,36l0,23.3c0,6.3,4.5,12,10.8,12.6c7.2,0.7,13.2-4.9,13.2-11.9v-24c0-6.6,5.4-12,12-12
	h24c6.6,0,12,5.4,12,12v24c0,35-30.1,63.1-65.8,59.7c-31.1-2.9-54.2-30.3-54.2-61.5V163.7c0-31.2,23.1-58.6,54.2-61.5
	c35.7-3.4,65.8,24.7,65.8,59.7V281.9z"/>
</svg>
